<svg width="144" height="144" viewBox="0 0 144 144" fill="none" xmlns="http://www.w3.org/2000/svg">
<path d="M47.0412 108.554H40.7273V83.4985H47.0412V108.554Z" fill="#049FD9"/>
<path d="M97.9527 90.6777C97.6927 90.5455 95.6607 89.3399 92.6407 89.3399C88.5588 89.3399 85.7268 92.1837 85.7268 96.0228C85.7268 99.7457 88.4368 102.712 92.6407 102.712C95.6087 102.712 97.6747 101.53 97.9527 101.382V108.107C97.1607 108.327 95.0027 108.998 92.1987 108.998C85.0968 108.998 78.8629 104.096 78.8629 96.0208C78.8629 88.5409 84.5028 83.0535 92.1987 83.0535C95.1587 83.0535 97.3547 83.7745 97.9527 83.9528V90.6777ZM32.0476 90.6777C31.7936 90.5455 29.7636 89.3399 26.7436 89.3399C22.6537 89.3399 19.8237 92.1837 19.8237 96.0228C19.8237 99.7457 22.5357 102.712 26.7436 102.712C29.7116 102.712 31.7756 101.53 32.0476 101.382V108.107C31.2636 108.327 29.1076 108.998 26.2876 108.998C19.1917 108.998 12.9658 104.096 12.9658 96.0208C12.9658 88.5409 18.6058 83.0535 26.2896 83.0535C29.2616 83.0535 31.4536 83.7745 32.0476 83.9528V90.6777ZM117.814 89.4341C114.068 89.4341 111.286 92.3859 111.286 96.0228C111.286 99.6676 114.068 102.618 117.814 102.618C121.556 102.618 124.346 99.6676 124.346 96.0228C124.346 92.3859 121.556 89.4341 117.814 89.4341ZM131.036 96.0228C131.036 103.19 125.51 108.998 117.816 108.998C110.118 108.998 104.601 103.19 104.601 96.0208C104.601 88.8673 110.12 83.0535 117.814 83.0535C125.51 83.0535 131.036 88.8673 131.036 96.0228ZM70.985 89.1938C70.891 89.1637 68.2331 88.4287 66.0491 88.4287C63.5191 88.4287 62.1432 89.2779 62.1432 90.4815C62.1432 92.0075 63.9991 92.5401 65.0371 92.8686L66.7791 93.4234C70.879 94.7291 72.745 97.5388 72.745 100.591C72.745 106.885 67.2171 109 62.3851 109C59.0272 109 55.8812 108.379 55.5712 108.315V102.547C56.1272 102.688 58.7752 103.481 61.5332 103.481C64.6751 103.481 66.1191 102.56 66.1191 101.142C66.1191 99.872 64.8691 99.1389 63.3031 98.6463C62.9231 98.5181 62.3471 98.3378 61.9551 98.2097C58.4392 97.0962 55.5072 95.0255 55.5072 90.88C55.5072 86.1937 59.0112 83.0475 64.8311 83.0475C67.9051 83.0475 70.797 83.7945 70.985 83.8446V89.1938Z" fill="#049FD9"/>
<path d="M6.26992 56.5724C6.26992 54.8461 4.86193 53.4461 3.13596 53.4461C1.40998 53.4461 0 54.846 0 56.5703V63.1491C0.0206558 63.9679 0.360014 64.7463 0.945681 65.3181C1.53135 65.8899 2.31697 66.2099 3.13497 66.2099C3.95296 66.2099 4.73857 65.8899 5.32424 65.3181C5.9099 64.7463 6.24926 63.9679 6.26992 63.1491V56.5724ZM23.4877 47.9409C23.4877 47.1083 23.1574 46.3098 22.5695 45.7211C21.9815 45.1324 21.1842 44.8017 20.3527 44.8017C19.5213 44.8017 18.7239 45.1324 18.136 45.7211C17.5481 46.3098 17.2178 47.1083 17.2178 47.9409V63.1491C17.2178 63.9817 17.5481 64.7801 18.136 65.3688C18.7239 65.9576 19.5213 66.2883 20.3527 66.2883C21.1842 66.2883 21.9815 65.9576 22.5695 65.3688C23.1574 64.7801 23.4877 63.9817 23.4877 63.1491V47.9388V47.9409ZM40.7074 36.1292C40.7074 34.4029 39.2995 33.001 37.5735 33.001C35.8455 33.001 34.4375 34.4029 34.4375 36.1292V69.3993C34.4582 70.2182 34.7975 70.9965 35.3832 71.5684C35.9689 72.1402 36.7545 72.4603 37.5725 72.4603C38.3905 72.4603 39.1761 72.1402 39.7618 71.5684C40.3474 70.9965 40.6868 70.2182 40.7074 69.3993V36.1292ZM57.9252 47.9409C57.9252 47.1083 57.5949 46.3098 57.007 45.7211C56.4191 45.1324 55.6217 44.8017 54.7902 44.8017C53.9588 44.8017 53.1614 45.1324 52.5735 45.7211C51.9856 46.3098 51.6553 47.1083 51.6553 47.9409V63.1491C51.6553 63.9817 51.9856 64.7801 52.5735 65.3688C53.1614 65.9576 53.9588 66.2883 54.7902 66.2883C55.6217 66.2883 56.4191 65.9576 57.007 65.3688C57.5949 64.7801 57.9252 63.9817 57.9252 63.1491V47.9388V47.9409ZM75.125 56.5724C75.1255 55.7441 74.7976 54.9496 74.2133 54.3634C73.629 53.7772 72.8361 53.4472 72.009 53.4461C71.1801 53.4456 70.3848 53.7742 69.7973 54.3598C69.2099 54.9454 68.8782 55.7403 68.8751 56.5703V63.1491C68.8751 63.979 69.2043 64.7749 69.7903 65.3618C70.3764 65.9486 71.1712 66.2783 72 66.2783C72.8288 66.2783 73.6236 65.9486 74.2097 65.3618C74.7957 64.7749 75.125 63.979 75.125 63.1491V56.5724ZM92.3507 47.9409C92.3301 47.1247 91.9918 46.3488 91.408 45.7788C90.8242 45.2089 90.0411 44.8898 89.2258 44.8898C88.4104 44.8898 87.6273 45.2089 87.0435 45.7788C86.4597 46.3488 86.1214 47.1247 86.1008 47.9409V63.1491C86.1008 63.979 86.43 64.7749 87.0161 65.3618C87.6021 65.9486 88.397 66.2783 89.2258 66.2783C90.0546 66.2783 90.8494 65.9486 91.4354 65.3618C92.0215 64.7749 92.3507 63.979 92.3507 63.1491V47.9388V47.9409ZM109.58 36.1292C109.58 35.2993 109.251 34.5033 108.665 33.9165C108.079 33.3297 107.284 33 106.456 33C105.627 33 104.832 33.3297 104.246 33.9165C103.66 34.5033 103.331 35.2993 103.331 36.1292V69.3993C103.312 69.8218 103.379 70.2436 103.528 70.6394C103.677 71.0352 103.904 71.3967 104.196 71.7022C104.488 72.0077 104.839 72.2508 105.227 72.4169C105.615 72.583 106.033 72.6687 106.456 72.6687C106.878 72.6687 107.296 72.583 107.684 72.4169C108.072 72.2508 108.423 72.0077 108.715 71.7022C109.007 71.3967 109.234 71.0352 109.383 70.6394C109.532 70.2436 109.599 69.8218 109.58 69.3993V36.1292ZM126.806 47.9409C126.806 46.2126 125.408 44.8087 123.642 44.8087C122.814 44.8092 122.019 45.1392 121.433 45.7261C120.847 46.3131 120.518 47.109 120.518 47.9388V63.1491C120.518 64.8854 121.918 66.2852 123.642 66.2852C125.408 66.2852 126.806 64.8854 126.806 63.1491V47.9388V47.9409ZM144 56.5724C144 55.7417 143.67 54.9449 143.084 54.3575C142.497 53.7701 141.702 53.4401 140.872 53.4401C140.042 53.4401 139.247 53.7701 138.66 54.3575C138.074 54.9449 137.744 55.7417 137.744 56.5724V63.1491C137.744 64.8854 139.146 66.2872 140.872 66.2872C142.596 66.2872 143.998 64.8854 143.998 63.1491V56.5724H144Z" fill="#049FD9"/>
</svg>
